<svg xmlns="http://www.w3.org/2000/svg" width="78" height="13.314" viewBox="0 0 78 13.314">
  <g id="Group_2" data-name="Group 2" transform="translate(-114 -283)">
    <path id="Icon_feather-star" data-name="Icon feather-star" d="M10,3l2.163,4.382L17,8.089,13.5,11.5l.826,4.816L10,14.039,5.674,16.314,6.5,11.5,3,8.089l4.837-.707Z" transform="translate(111 280)" fill="#aeaeae"/>
    <path id="Icon_feather-star-2" data-name="Icon feather-star" d="M10,3l2.163,4.382L17,8.089,13.5,11.5l.826,4.816L10,14.039,5.674,16.314,6.5,11.5,3,8.089l4.837-.707Z" transform="translate(127 280)" fill="#aeaeae"/>
    <path id="Icon_feather-star-3" data-name="Icon feather-star" d="M10,3l2.163,4.382L17,8.089,13.5,11.5l.826,4.816L10,14.039,5.674,16.314,6.5,11.5,3,8.089l4.837-.707Z" transform="translate(143 280)" fill="#aeaeae"/>
    <path id="Icon_feather-star-4" data-name="Icon feather-star" d="M10,3l2.163,4.382L17,8.089,13.5,11.5l.826,4.816L10,14.039,5.674,16.314,6.5,11.5,3,8.089l4.837-.707Z" transform="translate(159 280)" fill="#aeaeae"/>
    <path id="Icon_feather-star-5" data-name="Icon feather-star" d="M10,3l2.163,4.382L17,8.089,13.5,11.5l.826,4.816L10,14.039,5.674,16.314,6.5,11.5,3,8.089l4.837-.707Z" transform="translate(175 280)" fill="#aeaeae"/>
  </g>
</svg>
