<svg xmlns="http://www.w3.org/2000/svg" width="78" height="13.314" viewBox="0 0 78 13.314">
  <g id="Group_5" data-name="Group 5" transform="translate(-55 -347)">
    <path id="Icon_feather-star" data-name="Icon feather-star" d="M10,3l2.163,4.382L17,8.089,13.5,11.5l.826,4.816L10,14.039,5.674,16.314,6.5,11.5,3,8.089l4.837-.707Z" transform="translate(52 344)" fill="#ddd835"/>
    <path id="Icon_feather-star-2" data-name="Icon feather-star" d="M10,3l2.163,4.382L17,8.089,13.5,11.5l.826,4.816L10,14.039,5.674,16.314,6.5,11.5,3,8.089l4.837-.707Z" transform="translate(68 344)" fill="#ddd835"/>
    <path id="Icon_feather-star-3" data-name="Icon feather-star" d="M10,3l2.163,4.382L17,8.089,13.5,11.5l.826,4.816L10,14.039,5.674,16.314,6.5,11.5,3,8.089l4.837-.707Z" transform="translate(84 344)" fill="#ddd835"/>
    <path id="Icon_feather-star-4" data-name="Icon feather-star" d="M10,3l2.163,4.382L17,8.089,13.5,11.5l.826,4.816L10,14.039,5.674,16.314,6.5,11.5,3,8.089l4.837-.707Z" transform="translate(100 344)" fill="#ddd835"/>
    <g id="Group_1" data-name="Group 1">
      <path id="Icon_feather-star-5" data-name="Icon feather-star" d="M10,3l2.163,4.382L17,8.089,13.5,11.5l.826,4.816L10,14.039,5.674,16.314,6.5,11.5,3,8.089l4.837-.707Z" transform="translate(116 344)" fill="#ddd835"/>
      <path id="Subtraction_1" data-name="Subtraction 1" d="M20.033,21h0l-4.324-2.273V7.686l2.163,4.382,4.838.707-3.5,3.409L20.033,21Z" transform="translate(110.293 339.314)" fill="#aeaeae"/>
    </g>
  </g>
</svg>
