<svg xmlns="http://www.w3.org/2000/svg" width="78" height="13.314" viewBox="0 0 78 13.314">
  <g id="Group_6" data-name="Group 6" transform="translate(-73 -368)">
    <path id="Icon_feather-star" data-name="Icon feather-star" d="M10,3l2.163,4.382L17,8.089,13.5,11.5l.826,4.816L10,14.039,5.674,16.314,6.5,11.5,3,8.089l4.837-.707Z" transform="translate(70 365)" fill="#ddd835"/>
    <path id="Icon_feather-star-2" data-name="Icon feather-star" d="M10,3l2.163,4.382L17,8.089,13.5,11.5l.826,4.816L10,14.039,5.674,16.314,6.5,11.5,3,8.089l4.837-.707Z" transform="translate(86 365)" fill="#ddd835"/>
    <path id="Icon_feather-star-3" data-name="Icon feather-star" d="M10,3l2.163,4.382L17,8.089,13.5,11.5l.826,4.816L10,14.039,5.674,16.314,6.5,11.5,3,8.089l4.837-.707Z" transform="translate(102 365)" fill="#ddd835"/>
    <path id="Icon_feather-star-4" data-name="Icon feather-star" d="M10,3l2.163,4.382L17,8.089,13.5,11.5l.826,4.816L10,14.039,5.674,16.314,6.5,11.5,3,8.089l4.837-.707Z" transform="translate(118 365)" fill="#ddd835"/>
    <path id="Icon_feather-star-5" data-name="Icon feather-star" d="M10,3l2.163,4.382L17,8.089,13.5,11.5l.826,4.816L10,14.039,5.674,16.314,6.5,11.5,3,8.089l4.837-.707Z" transform="translate(134 365)" fill="#aeaeae"/>
  </g>
</svg>
